<?xml version="1.0" standalone="no"?><!DOCTYPE svg PUBLIC "-//W3C//DTD SVG 1.1//EN" "http://www.w3.org/Graphics/SVG/1.1/DTD/svg11.dtd"><svg t="1564486394525" class="icon" viewBox="0 0 1024 1024" version="1.1" xmlns="http://www.w3.org/2000/svg" p-id="12244" xmlns:xlink="http://www.w3.org/1999/xlink" width="200" height="200"><defs><style type="text/css"></style></defs><path d="M555.12051606 33.99428878l368.50038688 204.62408584a81.19034408 81.19034408 0 0 1 41.87712553 70.87367713v405.00551858a81.19034408 81.19034408 0 0 1-41.87712553 70.87367712L555.12051606 989.99533329a82.50281993 82.50281993 0 0 1-79.99995957 0L106.62016961 785.37124745A81.19034408 81.19034408 0 0 1 64.74304503 714.49757033V309.49205175a81.19034408 81.19034408 0 0 1 41.87712458-70.87367713L475.12055649 33.99428878a82.50281993 82.50281993 0 0 1 79.99995957 0z" fill="#1B7DA3" p-id="12245"></path><path d="M519.19531495 97.93931543a8.36321578 8.36321578 0 0 0-8.11903403 0L142.57589404 302.56340221a7.93589796 7.93589796 0 0 0-4.12056269 6.92864954v405.00551858c0 2.83861015 1.55665665 5.49408327 4.12056269 6.92865048l368.50038688 204.62408584a8.36321578 8.36321578 0 0 0 8.11903403 0l368.50038688-204.62408584a7.93589796 7.93589796 0 0 0 4.12056268-6.92865048V309.49205175a7.93589796 7.93589796 0 0 0-4.12056268-6.92864954L519.19531495 97.93931543zM555.12051606 33.99428878l368.50038688 204.62408584a81.19034408 81.19034408 0 0 1 41.87712553 70.87367713v405.00551858a81.19034408 81.19034408 0 0 1-41.87712553 70.87367712L555.12051606 989.99533329a82.50281993 82.50281993 0 0 1-79.99995957 0L106.62016961 785.37124745A81.19034408 81.19034408 0 0 1 64.74304503 714.49757033V309.49205175a81.19034408 81.19034408 0 0 1 41.87712458-70.87367713L475.12055649 33.99428878a82.50281993 82.50281993 0 0 1 79.99995957 0z" fill="#61BEE3" p-id="12246"></path><path d="M330.35145793 573.54380702c0 7.325445-1.4040439 14.19304884-4.18160838 20.60281345a53.93358617 53.93358617 0 0 1-28.26400728 28.26400728 50.85079427 50.85079427 0 0 1-20.60281249 4.18160742H188.87880874V449.74379311h88.42422104c7.325445 0 14.19304884 1.4040439 20.60281249 4.18160835a53.93358617 53.93358617 0 0 1 28.26400728 28.26400729c2.80808683 6.44028697 4.18160837 13.27736845 4.18160838 20.6028125 0 3.29645034-0.4578402 6.65394541-1.34299823 10.10300947a47.73748095 47.73748095 0 0 1-9.73673732 18.7409284 32.87293253 32.87293253 0 0 1-7.66119382 6.53185502c2.86913251 1.55665665 5.4635609 3.69324486 7.78328518 6.34871892s4.27317641 5.61617462 5.92140015 8.82105598a45.78402883 45.78402883 0 0 1 5.03624404 20.20601798z m150.56840926 53.04842815H357.08932995V449.74379311h35.40631621v141.44212682h88.42422103v35.40631524z m355.55876821-17.8862937a90.5913316 90.5913316 0 0 1-83.29640991 18.43570194 89.49251513 89.49251513 0 0 1-21.76267559-9.24837382c-6.74551345-3.99847229-12.9110963-8.76001124-18.49674762-14.31513924a90.34714984 90.34714984 0 0 1-23.50246737-40.38151359 90.43871788 90.43871788 0 0 1-3.26592797-24.29605832c0-8.3937391 1.09881647-16.45172744 3.26592797-24.17396695s5.24990151-14.98663882 9.18732814-21.76267464a92.8500102 92.8500102 0 0 1 32.81188685-32.75084212c6.74551345-3.93742661 14.00991276-7.02021757 21.76267559-9.18732908s15.84127353-3.26592703 24.23501262-3.26592703a90.95760374 90.95760374 0 0 1 59.06139729 21.7016299l-18.49674761 30.82791238c-5.34147051-5.43303854-11.5070524-9.67569164-18.4967476-12.75848259s-14.34566255-4.63944856-22.06790208-4.63944856-14.98663882 1.49561193-21.76267558 4.42579012a57.38264928 57.38264928 0 0 0-29.91223198 29.79014158c-2.96070055 6.77603582-4.42578917 14.04043513-4.42578917 21.76267463 0 7.81380755 1.49561193 15.13925254 4.42578917 21.94581072a56.95533144 56.95533144 0 0 0 29.91223198 29.97327765 53.78097245 53.78097245 0 0 0 34.70429425 2.80808779c4.18160837-1.09881647 8.18007971-2.56390604 11.9648926-4.42579012v-50.3319084h34.15488602v69.80538208z m-98.09991266 32.75084212l3.2048823 18.71040605-118.36697633-62.23575628-118.36697631 62.23575628 22.61731029-131.79695754-95.74966508-93.33837371 132.31584342-19.22929191 59.18348768-119.92363299 45.47880236 92.14798921c-119.77101927 93.27732803-163.60159597 259.99223827-163.60159694 271.95713087 0-12.33116476 65.5932523-182.22043493 201.41920449-240.70190068l108.2334445 15.71918314-0.33574979 0.33574979c-85.61613419-13.12475474-146.56993794 29.85118726-146.56993792 98.13043503 0 63.91450428 37.9091756 89.33990142 70.53792733 107.95873943zM224.28512399 591.18591993h53.01790578a17.82524898 17.82524898 0 0 0 12.51430083-5.09728876 17.09270371 17.09270371 0 0 0 5.09728876-12.51430083 17.82524898 17.82524898 0 0 0-5.09728876-12.51430179 17.09270371 17.09270371 0 0 0-12.51430083-5.09728875H224.28512399v35.28422484z m0-70.66001774h53.01790578a17.82524898 17.82524898 0 0 0 12.51430083-5.09728875c1.61770234-1.61770234 2.86913251-3.47958642 3.75429054-5.67721935a18.34413389 18.34413389 0 0 0-3.75429054-19.47347367 17.09270371 17.09270371 0 0 0-12.51430083-5.09728875H224.28512399v35.40631525z" fill="#FFFFFF" p-id="12247"></path></svg>