<?xml version="1.0" encoding="UTF-8"?>
<svg width="92px" height="32px" viewBox="0 0 92 32" version="1.1" xmlns="http://www.w3.org/2000/svg" xmlns:xlink="http://www.w3.org/1999/xlink">
    <!-- Generator: Sketch 50.2 (55047) - http://www.bohemiancoding.com/sketch -->
    <title>Logo</title>
    <desc>Created with Sketch.</desc>
    <defs></defs>
    <g id="Symbols" stroke="none" stroke-width="1" fill="none" fill-rule="evenodd">
        <g id="首頁" transform="translate(-90.000000, -14.000000)">
            <g id="Group-12">
                <g id="導覽-copy">
                    <g id="Header">
                        <g id="jibao-logo-en" transform="translate(90.000000, 14.000000)">
                            <g id="Page-1">
                                <g>
                                    <g id="Artboard">
                                        <g id="Logo">
                                            <path d="M22.1251534,11.7775148 C19.5852761,8.69112426 15.8224949,9.99763314 15.8224949,9.99763314 L15.5402863,9.6 C16.1235174,9.01301775 17.9108384,4.75266272 14.806544,1.91242604 C11.7210634,-0.927810651 8.5603272,0.208284024 5.96400818,1.76094675 C3.36768916,3.31360947 0.0752556237,7.04378698 0.0752556237,12.2698225 C0.150511247,15.2615385 1.24171779,20.1656805 6.22740286,22.9491124 C11.2130879,25.7514793 16.3680982,24.5207101 19.7357873,22.0023669 C23.3480573,19.3514793 24.9848671,15.2615385 22.1251534,11.7775148 L22.1251534,11.7775148 Z M17.0830266,18.7455621 C14.8441718,20.6011834 12.003272,20.5065089 12.003272,20.5065089 C7.45030675,20.5065089 3.76278119,16.7952663 3.76278119,12.2130178 C3.76278119,8.48284024 6.24621677,5.37751479 9.57627812,4.29822485 C9.91492843,4.16568047 12.398364,3.86272189 12.398364,6.32426036 C12.398364,6.83550296 12.0220859,7.85798817 10.5734151,8.17988166 C9.10593047,8.52071006 7.41267894,10.1301775 7.41267894,12.3266272 C7.41267894,14.7692308 9.35051125,16.8142012 11.7775051,16.8142012 C11.7775051,16.8142012 13.4143149,16.8710059 14.6936605,15.7159763 C15.9730061,14.5609467 15.7472393,13.5195266 17.2899796,13.5195266 C18.3623722,13.5195266 19.2654397,14.504142 19.2654397,15.6402367 C19.2466258,15.6402367 19.3218814,16.8710059 17.0830266,18.7455621 L17.0830266,18.7455621 Z" id="Shape" fill="#E62427"></path>
                                            <path d="M29.8200409,1.26863905 C28.7664622,1.26863905 27.9198364,2.12071006 27.9198364,3.18106509 L27.9198364,13.4627219 C27.9198364,14.5230769 28.7664622,15.3751479 29.8200409,15.3751479 C30.8736196,15.3751479 31.7202454,14.5230769 31.7202454,13.4627219 L31.7202454,3.18106509 C31.7390593,2.12071006 30.8736196,1.26863905 29.8200409,1.26863905 L29.8200409,1.26863905 Z" id="Shape" fill="#E62427"></path>
                                            <ellipse id="Oval" fill="#E62427" cx="64.0989775" cy="13.008284" rx="2.8408998" ry="2.8591716"></ellipse>
                                            <path d="M81.7276074,1.15502959 C80.6740286,1.15502959 79.8274029,2.00710059 79.8274029,3.06745562 L79.8274029,13.3491124 C79.8274029,14.4094675 80.6740286,15.2615385 81.7276074,15.2615385 C82.7811861,15.2615385 83.6278119,14.4094675 83.6278119,13.3491124 L83.6278119,3.06745562 C83.6278119,2.0260355 82.7811861,1.15502959 81.7276074,1.15502959 L81.7276074,1.15502959 Z" id="Shape" fill="#E62427"></path>
                                            <path d="M64.0989775,2.06390533 C58.0973415,2.06390533 53.2433538,6.94911243 53.2433538,12.9893491 C53.2433538,19.0295858 58.0973415,23.9147929 64.0989775,23.9147929 C70.1006135,23.9147929 74.9546012,19.0295858 74.9546012,12.9893491 C74.9546012,6.94911243 70.1006135,2.06390533 64.0989775,2.06390533 L64.0989775,2.06390533 Z M64.0989775,20.0710059 C60.2233129,20.0710059 57.0625767,16.9088757 57.0625767,12.9893491 C57.0625767,9.06982249 60.204499,5.90769231 64.0989775,5.90769231 C67.9746421,5.90769231 71.1353783,9.06982249 71.1353783,12.9893491 C71.1353783,16.9088757 67.9746421,20.0710059 64.0989775,20.0710059 L64.0989775,20.0710059 Z" id="Shape" fill="#E62427"></path>
                                            <path d="M36.6118609,11.9100592 L36.6118609,26.452071 C36.6118609,29.5005917 39.0764826,31.9810651 42.1055215,31.9810651 C45.1345603,31.9810651 47.599182,29.5005917 47.599182,26.452071 L47.599182,22.2674556 C52.79182,21.8319527 56.8744376,17.4579882 56.8744376,12.1183432 C56.8744376,6.49467456 52.3402863,1.91242604 46.7337423,1.91242604 C41.202454,1.93136095 36.7247444,6.38106509 36.6118609,11.9100592 M43.9304703,12.0615385 L43.9304703,26.4331361 C43.9304703,27.4556213 43.1026585,28.2698225 42.1055215,28.2698225 C41.0895706,28.2698225 40.2617587,27.4366864 40.2617587,26.4331361 L40.2617587,12.0615385 L40.2617587,12.0615385 C40.3182004,8.52071006 43.196728,5.66153846 46.7337423,5.66153846 C50.3083845,5.66153846 53.205726,8.57751479 53.205726,12.1751479 C53.205726,15.4887574 50.7411043,18.2343195 47.5427403,18.6319527 L47.5427403,14.8639053 C48.6903885,14.504142 49.5182004,13.443787 49.5182004,12.1751479 C49.5182004,10.6224852 48.2576687,9.35384615 46.7149284,9.35384615 C45.209816,9.35384615 43.9869121,10.5467456 43.9304703,12.0615385 L43.9304703,12.0615385" id="Shape" fill="#E62427"></path>
                                            <path d="M88.199591,5.47218935 L88.199591,5.47218935 C88.2184049,4.46863905 89.0274029,3.65443787 90.0245399,3.65443787 C91.0216769,3.65443787 91.8306748,4.46863905 91.8494888,5.47218935 L91.8494888,5.47218935 L91.8494888,13.3869822 C91.8494888,16.9846154 89.9869121,20.1278107 87.1836401,21.9455621 L87.1836401,26.4899408 C87.1836401,29.5195266 84.7378323,31.9810651 81.7276074,31.9810651 C78.7173824,31.9810651 76.2715746,29.5195266 76.2715746,26.4899408 L76.2715746,21.9076923 C73.5059305,20.0899408 71.6809816,16.9656805 71.6809816,13.3869822 L71.6997955,5.45325444 C71.6997955,4.44970414 72.5087935,3.65443787 73.4871166,3.65443787 C74.4842536,3.65443787 75.2744376,4.46863905 75.2744376,5.45325444 L75.2744376,13.3869822 C75.2744376,16.3408284 77.2310838,18.8402367 79.9026585,19.635503 L79.9026585,26.4710059 C79.9026585,27.4556213 80.7304703,28.2698225 81.7276074,28.2698225 C82.7435583,28.2698225 83.5525562,27.4745562 83.5525562,26.4710059 L83.5525562,19.635503 C86.2241309,18.8402367 88.1807771,16.3408284 88.1807771,13.3869822 L88.1807771,5.47218935" id="Shape" fill="#E62427"></path>
                                            <ellipse id="Oval" fill="#EEE454" cx="11.7586912" cy="12.4023669" rx="2.03190184" ry="2.04497041"></ellipse>
                                            <path d="M19.8298569,14.3905325 L19.8298569,14.3905325 C19.8862986,20.0142012 24.4204499,24.539645 30.0269939,24.539645 C35.6147239,24.539645 40.1676892,20.0142012 40.2241309,14.4094675 L40.2241309,14.4094675 L40.2241309,5.47218935 C40.2241309,4.44970414 39.396319,3.59763314 38.3615542,3.59763314 C37.3456033,3.59763314 36.4989775,4.43076923 36.4989775,5.47218935 L36.4989775,14.3147929 C36.4989775,17.912426 33.5828221,20.8473373 30.00818,20.8473373 C26.4147239,20.8473373 23.4985685,17.912426 23.4985685,14.295858 L23.4985685,5.47218935 C23.4985685,4.44970414 22.6707566,3.61656805 21.6548057,3.61656805 C20.6388548,3.61656805 19.8110429,4.44970414 19.8110429,5.47218935 L19.8110429,14.3905325" id="Shape" fill="#E62427"></path>
                                        </g>
                                    </g>
                                </g>
                            </g>
                        </g>
                    </g>
                </g>
            </g>
        </g>
    </g>
</svg>